<?xml version="1.0" encoding="UTF-8" standalone="no"?>
<!-- Generator: Adobe Illustrator 18.1.1, SVG Export Plug-In . SVG Version: 6.00 Build 0)  -->

<svg
   xmlns:dc="http://purl.org/dc/elements/1.1/"
   xmlns:cc="http://creativecommons.org/ns#"
   xmlns:rdf="http://www.w3.org/1999/02/22-rdf-syntax-ns#"
   xmlns:svg="http://www.w3.org/2000/svg"
   xmlns="http://www.w3.org/2000/svg"
   xmlns:sodipodi="http://sodipodi.sourceforge.net/DTD/sodipodi-0.dtd"
   xmlns:inkscape="http://www.inkscape.org/namespaces/inkscape"
   version="1.1"
   id="Capa_1"
   x="0px"
   y="0px"
   viewBox="0 0 32 32"
   xml:space="preserve"
   sodipodi:docname="play-button.svg"
   width="32"
   height="32"
   inkscape:version="0.92.1 r15371"><metadata
     id="metadata3719"><rdf:RDF><cc:Work
         rdf:about=""><dc:format>image/svg+xml</dc:format><dc:type
           rdf:resource="http://purl.org/dc/dcmitype/StillImage" /><dc:title></dc:title></cc:Work></rdf:RDF></metadata><defs
     id="defs3717" /><sodipodi:namedview
     pagecolor="#ffffff"
     bordercolor="#666666"
     borderopacity="1"
     objecttolerance="10"
     gridtolerance="10"
     guidetolerance="10"
     inkscape:pageopacity="0"
     inkscape:pageshadow="2"
     inkscape:window-width="1920"
     inkscape:window-height="1017"
     id="namedview3715"
     showgrid="false"
     inkscape:zoom="18.73833"
     inkscape:cx="10.338987"
     inkscape:cy="17.777371"
     inkscape:window-x="-8"
     inkscape:window-y="-8"
     inkscape:window-maximized="1"
     inkscape:current-layer="Capa_1" /><g
     id="g3682"
     transform="matrix(1.9672687,0,0,1.9672687,0.3201993,0.25686791)"><path
       style="fill:#030104"
       d="M 8,0 C 3.582,0 0,3.582 0,8 c 0,4.418 3.582,8 8,8 4.418,0 8,-3.582 8,-8 C 16,3.582 12.418,0 8,0 Z M 5,12 V 4 l 7,4 z"
       id="path3680"
       inkscape:connector-curvature="0" /></g><g
     id="g3684"
     transform="translate(0,16)" /><g
     id="g3686"
     transform="translate(0,16)" /><g
     id="g3688"
     transform="translate(0,16)" /><g
     id="g3690"
     transform="translate(0,16)" /><g
     id="g3692"
     transform="translate(0,16)" /><g
     id="g3694"
     transform="translate(0,16)" /><g
     id="g3696"
     transform="translate(0,16)" /><g
     id="g3698"
     transform="translate(0,16)" /><g
     id="g3700"
     transform="translate(0,16)" /><g
     id="g3702"
     transform="translate(0,16)" /><g
     id="g3704"
     transform="translate(0,16)" /><g
     id="g3706"
     transform="translate(0,16)" /><g
     id="g3708"
     transform="translate(0,16)" /><g
     id="g3710"
     transform="translate(0,16)" /><g
     id="g3712"
     transform="translate(0,16)" /></svg>